<svg xmlns="http://www.w3.org/2000/svg" xmlns:xlink="http://www.w3.org/1999/xlink" width="23" height="23" viewBox="0 0 23 23"><defs><linearGradient id="a" y1="0.511" x2="1" y2="0.5" gradientUnits="objectBoundingBox"><stop offset="0" stop-color="#5895fe"/><stop offset="1" stop-color="#7ed1f1"/></linearGradient></defs><g transform="translate(0.568 0.568)"><g transform="translate(-0.5 -0.499)"><circle cx="11.5" cy="11.5" r="11.5" transform="translate(-0.069 -0.069)" fill="url(#a)"/><path d="M42.969,48.185a.562.562,0,0,1-.1-.009l-4.533-.8a.613.613,0,0,1-.5-.542L36.16,33.025a.633.633,0,0,1,.154-.506.6.6,0,0,1,.453-.2H49.183a.6.6,0,0,1,.447.2.633.633,0,0,1,.154.506L48.1,46.834a.613.613,0,0,1-.5.539l-4.535.8A.561.561,0,0,1,42.969,48.185ZM42.977,47.552Zm-4.516-.8,4.508.8,4.508-.8,1.673-13.8H36.79Z" transform="translate(-31.428 -28.079)" fill="#fff"/><path d="M62.988,57.39H54.364a.227.227,0,0,0-.225.253l.14,1.157a.227.227,0,0,0,.22.2h6.733a.229.229,0,0,1,.227.253l-.1.839a.228.228,0,0,1-.227.2H54.713a.229.229,0,0,0-.227.253l.127,1.035a.227.227,0,0,0,.225.2h6.075a.227.227,0,0,1,.225.253l-.464,2.75a.228.228,0,0,1-.158.187l-1.919.38a.241.241,0,0,1-.127,0l-1.854-.438a.225.225,0,0,1-.165-.206v-.956a.228.228,0,0,0-.228-.215l-1.119.015a.229.229,0,0,0-.225.253l.309,2.34a.225.225,0,0,0,.2.21l3.253.553a.253.253,0,0,0,.076,0l3.253-.553a.229.229,0,0,0,.187-.2l1.059-8.512a.228.228,0,0,0-.225-.256Z" transform="translate(-47.135 -49.976)" fill="#fff"/></g></g></svg>