<svg xmlns="http://www.w3.org/2000/svg" xmlns:xlink="http://www.w3.org/1999/xlink" width="23" height="23" viewBox="0 0 23 23"><defs><linearGradient id="a" y1="0.527" x2="1" y2="0.537" gradientUnits="objectBoundingBox"><stop offset="0" stop-color="#fe5858"/><stop offset="1" stop-color="#f57a44"/></linearGradient></defs><g transform="translate(0.366 0.366)"><g transform="translate(-0.366 -0.366)"><circle cx="11.5" cy="11.5" r="11.5" transform="translate(0)" fill="url(#a)"/><path d="M42.872,47.044a.559.559,0,0,1-.1-.009l-4.535-.8a.614.614,0,0,1-.5-.54L36.061,31.879a.632.632,0,0,1,.155-.505.6.6,0,0,1,.446-.2H49.081a.6.6,0,0,1,.446.2.632.632,0,0,1,.155.505L48.009,45.694a.614.614,0,0,1-.505.54l-4.535.8A.56.56,0,0,1,42.872,47.044ZM42.88,46.412Zm-4.517-.8,4.51.8,4.51-.8,1.673-13.808H36.69Z" transform="translate(-31.245 -26.976)" fill="#fff"/><path d="M54.994,56H63.47a.222.222,0,0,1,.21.253l-.142,1.39a.219.219,0,0,1-.21.2H57.174a.222.222,0,0,0-.209.253l.119.945a.217.217,0,0,0,.21.2h5.8a.221.221,0,0,1,.21.253l-.579,5.271a.221.221,0,0,1-.173.2l-3.275.632a.185.185,0,0,1-.087,0l-3.2-.831a.224.224,0,0,1-.159-.19l-.308-2.293a.225.225,0,0,1,.21-.262h1.516a.217.217,0,0,1,.21.2l.15,1.264a.22.22,0,0,0,.168.195l1.419.31a.211.211,0,0,0,.075,0l1.871-.318a.221.221,0,0,0,.177-.2l.281-2.348a.222.222,0,0,0-.208-.253H55.522a.217.217,0,0,1-.207-.207l-.529-4.4A.222.222,0,0,1,54.994,56Z" transform="translate(-47.605 -48.669)" fill="#fff"/></g></g></svg>