<svg xmlns="http://www.w3.org/2000/svg" xmlns:xlink="http://www.w3.org/1999/xlink" width="23" height="23" viewBox="0 0 23 23"><defs><linearGradient id="a" y1="0.512" x2="1" y2="0.512" gradientUnits="objectBoundingBox"><stop offset="0" stop-color="#ffb300"/><stop offset="1" stop-color="#f1e67e"/></linearGradient></defs><g transform="translate(0.011 0.011)"><g transform="translate(-0.007 -0.007)"><circle cx="11.5" cy="11.5" r="11.5" transform="translate(-0.004 -0.004)" fill="url(#a)"/><path d="M43.222,49.569a.547.547,0,0,1-.1-.009h0l-4.6-.813a.624.624,0,0,1-.508-.549l-1.7-14.017a.644.644,0,0,1,.157-.515.608.608,0,0,1,.455-.206h12.6a.608.608,0,0,1,.455.206.644.644,0,0,1,.157.515L48.435,48.2a.624.624,0,0,1-.508.549l-4.6.813A.57.57,0,0,1,43.222,49.569ZM43.229,48.925Zm-4.582-.808,4.575.808,4.575-.808,1.7-14.008H36.952Z" transform="translate(-31.82 -29.342)" fill="#fff"/><path d="M59.761,61h1.072a.215.215,0,0,1,.215.215v8.594a.214.214,0,0,1-.258.21l-3.044-.554a.216.216,0,0,1-.164-.193l-.061-.593a.214.214,0,0,1,.258-.232l1.536.305a.213.213,0,0,0,.258-.21l-.015-7.332A.214.214,0,0,1,59.761,61Z" transform="translate(-50.303 -53.335)" fill="#fff"/><path d="M94.636,61H90.974a.214.214,0,0,0-.214.214v4.344a.215.215,0,0,0,.232.209l1.912-.209a.214.214,0,0,1,.236.238l-.317,2.644a.215.215,0,0,1-.183.187l-1.591.224a.214.214,0,0,0-.184.207l-.015.745a.215.215,0,0,0,.249.215l2.584-.444a.211.211,0,0,0,.176-.184l.644-5.295a.215.215,0,0,0-.22-.24l-1.827.061a.214.214,0,0,1-.222-.223l.049-1.224a.215.215,0,0,1,.2-.2L94.6,62.1a.211.211,0,0,0,.188-.2l.062-.676a.215.215,0,0,0-.21-.225Z" transform="translate(-79.261 -53.335)" fill="#fff"/></g></g></svg>