<svg xmlns="http://www.w3.org/2000/svg" xmlns:xlink="http://www.w3.org/1999/xlink" viewBox="0 0 50 50"><defs><linearGradient id="linear-gradient" x1="-643.55" y1="402.8" x2="-643.17" y2="401.87" gradientTransform="matrix(50, 0, 0, -50, 32193, 20142)" gradientUnits="userSpaceOnUse"><stop offset="0" stop-color="#00afd7"/><stop offset="1" stop-color="#008bb7"/></linearGradient></defs><g id="Layer_2" data-name="Layer 2"><g id="Layer_1-2" data-name="Layer 1"><path class="cls-1" d="M25,0A25,25,0,1,0,50,25,25,25,0,0,0,25,0ZM18.6,18.54V39.59a.63.63,0,0,1-.63.63H12.8a.63.63,0,0,1-.63-.63V18.53a.63.63,0,0,1,.63-.62H18a.63.63,0,0,1,.63.62Zm0-8.58v5.67a.63.63,0,0,1-.63.63H12.8a.63.63,0,0,1-.63-.63V10a.63.63,0,0,1,.63-.63H18a.63.63,0,0,1,.63.63ZM38,25.94V39.8a.42.42,0,0,1-.42.42H32a.42.42,0,0,1-.42-.43V26.18a4.06,4.06,0,0,0-.4-2.22,1.22,1.22,0,0,0-1-.48c-1.18,0-1.76,1.11-1.76,3.34v13a.43.43,0,0,1-.43.43H22.39a.43.43,0,0,1-.43-.43V18.33a.42.42,0,0,1,.43-.42h5.13a.42.42,0,0,1,.43.42v.93a.42.42,0,0,0,.42.43.43.43,0,0,0,.36-.2,4.46,4.46,0,0,1,3.94-2,4.84,4.84,0,0,1,3,.93,5.11,5.11,0,0,1,1.76,2.41A17.16,17.16,0,0,1,38,25.94Z"/></g></g></svg>