<svg xmlns="http://www.w3.org/2000/svg" xmlns:xlink="http://www.w3.org/1999/xlink" width="42.461" height="42.461" viewBox="0 0 42.461 42.461">
  <defs>
    <linearGradient id="linear-gradient" x1="0.101" x2="0.844" y2="1" gradientUnits="objectBoundingBox">
      <stop offset="0" stop-color="#00b4db"/>
      <stop offset="1" stop-color="#008db9"/>
    </linearGradient>
  </defs>
  <g id="btn-messenger" transform="translate(-8.047 -8.047)">
    <g id="messenger" transform="translate(8.047 8.047)">
      <g id="Group_2" data-name="Group 2">
        <g id="Group_1" data-name="Group 1">
          <path id="Path_2" data-name="Path 2" d="M21.23,0A21.116,21.116,0,0,0,3.4,32.6l-3.31,8.15a1.244,1.244,0,0,0,1.617,1.617l8.15-3.31A21.2,21.2,0,1,0,21.23,0Z" fill="url(#linear-gradient)"/>
        </g>
      </g>
      <g id="Group_4" data-name="Group 4" transform="translate(5.882 11.701)">
        <g id="Group_3" data-name="Group 3">
          <path id="Path_3" data-name="Path 3" d="M121.448,168.279a1.3,1.3,0,0,0-1.641-.589l-10.32,4.407-4.946-5.63a1.451,1.451,0,0,0-1.027-.465,1.335,1.335,0,0,0-1,.534L91.35,180.828a1.758,1.758,0,0,0-.108,1.953,1.307,1.307,0,0,0,1.641.589l10.32-4.407,4.946,5.63a1.316,1.316,0,0,0,.986.465h.041a1.335,1.335,0,0,0,1-.534l11.162-14.295a1.758,1.758,0,0,0,.108-1.953Z" transform="translate(-90.997 -166)" fill="#fff"/>
        </g>
      </g>
    </g>
  </g>
</svg>
