<svg xmlns="http://www.w3.org/2000/svg" xmlns:xlink="http://www.w3.org/1999/xlink" viewBox="0 0 106.42 106.42"><defs><style>.cls-1{fill:url(#linear-gradient);}.cls-2{fill:#fff;}</style><linearGradient id="linear-gradient" y1="53.21" x2="106.42" y2="53.21" gradientUnits="userSpaceOnUse"><stop offset="0" stop-color="#5895fe"/><stop offset="1" stop-color="#7ed1f1"/></linearGradient></defs><g id="Layer_2" data-name="Layer 2"><g id="html"><circle class="cls-1" cx="53.21" cy="53.21" r="53.21"/><path class="cls-2" d="M48.57,28.22a2.61,2.61,0,0,1-2-.75,2.88,2.88,0,0,1-.74-2.12V20.2a4.13,4.13,0,0,1,.64-2.49,2.46,2.46,0,0,1,2.1-.86,3.32,3.32,0,0,1,1.41.29A2.27,2.27,0,0,1,51,18a2.76,2.76,0,0,1,.36,1.47v1.93H49.14V19.76a1.2,1.2,0,0,0-.13-.68.43.43,0,0,0-.39-.17.41.41,0,0,0-.42.22,1.43,1.43,0,0,0-.11.6v5.59a1.2,1.2,0,0,0,.14.66.47.47,0,0,0,.39.19.41.41,0,0,0,.4-.24,1.32,1.32,0,0,0,.12-.61v-2h2.25v2.11a2.71,2.71,0,0,1-.75,2.14A3,3,0,0,1,48.57,28.22Z"/><path class="cls-2" d="M55.64,28.22a2.82,2.82,0,0,1-2.21-.76A3.59,3.59,0,0,1,52.76,25V24H55v1.39a1.45,1.45,0,0,0,.11.61.44.44,0,0,0,.41.22.47.47,0,0,0,.43-.18,1.19,1.19,0,0,0,.11-.58,3.11,3.11,0,0,0-.1-.87,1.92,1.92,0,0,0-.35-.66,8.77,8.77,0,0,0-.7-.73l-1-.95a3.26,3.26,0,0,1-1.12-2.43,3.18,3.18,0,0,1,.66-2.17,2.42,2.42,0,0,1,1.92-.75,2.6,2.6,0,0,1,2.18.82,4,4,0,0,1,.65,2.49H55.89v-.77a.44.44,0,0,0-.48-.48.47.47,0,0,0-.39.14.61.61,0,0,0-.12.39A1.34,1.34,0,0,0,55,20a2.32,2.32,0,0,0,.51.62l1.28,1.24a7.36,7.36,0,0,1,.71.78,3.49,3.49,0,0,1,.53.95,3.94,3.94,0,0,1,.19,1.33,4.46,4.46,0,0,1-.58,2.46A2.21,2.21,0,0,1,55.64,28.22Z"/><path class="cls-2" d="M62.5,28.22a2.82,2.82,0,0,1-2.21-.76A3.59,3.59,0,0,1,59.61,25V24h2.21v1.39a1.29,1.29,0,0,0,.12.61.44.44,0,0,0,.41.22.47.47,0,0,0,.42-.18,1.07,1.07,0,0,0,.12-.58,3.11,3.11,0,0,0-.1-.87,2.11,2.11,0,0,0-.35-.66,8.77,8.77,0,0,0-.7-.73l-1-.95a3.27,3.27,0,0,1-1.13-2.43,3.18,3.18,0,0,1,.67-2.17,2.42,2.42,0,0,1,1.92-.75,2.61,2.61,0,0,1,2.18.82A4,4,0,0,1,65,20.16H62.75v-.77a.48.48,0,0,0-.13-.36.5.5,0,0,0-.35-.12.47.47,0,0,0-.39.14.56.56,0,0,0-.13.39,1.37,1.37,0,0,0,.13.51,2.08,2.08,0,0,0,.5.62l1.29,1.24a7.36,7.36,0,0,1,.71.78,3.22,3.22,0,0,1,.52.95,3.92,3.92,0,0,1,.2,1.33,4.46,4.46,0,0,1-.58,2.46A2.21,2.21,0,0,1,62.5,28.22Z"/><polygon class="cls-2" points="31.85 40.01 79.15 40.01 74.08 89.07 55.5 93.58 36.79 88.74 35.29 74.69 43.82 74.69 44.41 81.66 55.5 84.54 66.35 81.84 67.32 69.94 44.66 69.94 42.75 58.88 67.38 58.88 67.38 49.4 32.78 49.4 31.85 40.01"/></g></g></svg>