<svg xmlns="http://www.w3.org/2000/svg" xmlns:xlink="http://www.w3.org/1999/xlink" viewBox="0 0 106.42 106.42"><defs><style>.cls-1{fill:url(#linear-gradient);}.cls-2{fill:#fff;}</style><linearGradient id="linear-gradient" y1="53.21" x2="106.42" y2="53.21" gradientUnits="userSpaceOnUse"><stop offset="0" stop-color="#fe5858"/><stop offset="1" stop-color="#f57a44"/></linearGradient></defs><g id="Layer_2" data-name="Layer 2"><g id="html"><circle class="cls-1" cx="53.21" cy="53.21" r="53.21"/><path class="cls-2" d="M39,28.22V17.05h2.22v4h1.06v-4h2.22V28.22H42.27V23.16H41.21v5.06Z"/><path class="cls-2" d="M47.3,28.22v-9H46V17.05h4.89V19.2H49.53v9Z"/><path class="cls-2" d="M52.34,28.22V17.05h3.4l.94,6.81.93-6.81h3.44V28.22H59v-8l-1.28,8h-2l-1.36-8v8Z"/><path class="cls-2" d="M62.89,28.22V17.05h2.24v9.27h2.3v1.9Z"/><polygon class="cls-2" points="29.56 40.01 76.86 40.01 75.86 49.58 40.39 49.09 41.38 58.88 74.84 59.37 71.78 89.07 53.21 93.58 34.5 88.74 33 74.69 41.53 74.69 42.12 81.66 53.21 84.54 64.06 81.84 65.03 69.94 32.6 69.94 29.56 40.01"/></g></g></svg>