<svg xmlns="http://www.w3.org/2000/svg" xmlns:xlink="http://www.w3.org/1999/xlink" width="50" height="50" viewBox="0 0 50 50">
  <defs>
    <linearGradient id="linear-gradient" x1="0.233" y1="0.067" x2="0.617" y2="1" gradientUnits="objectBoundingBox">
      <stop offset="0" stop-color="#00afd7"/>
      <stop offset="1" stop-color="#008bb7"/>
    </linearGradient>
  </defs>
  <g id="Capa_2" data-name="Capa 2" transform="translate(-0.34 -0.34)">
    <g id="Capa_1" data-name="Capa 1" transform="translate(0.34 0.34)">
      <circle id="Ellipse_11" data-name="Ellipse 11" cx="25" cy="25" r="25" transform="translate(0 0)" fill="url(#linear-gradient)"/>
      <path id="Path_26" data-name="Path 26" d="M51.067,35.079v5.673a.632.632,0,0,1-.632.632H45.269a.632.632,0,0,1-.629-.632V35.079a.629.629,0,0,1,.629-.629h5.167a.632.632,0,0,1,.632.629Zm0,8.579V64.71a.632.632,0,0,1-.632.632H45.269a.632.632,0,0,1-.629-.632V43.657a.629.629,0,0,1,.629-.629h5.167a.632.632,0,0,1,.632.629Z" transform="translate(-32.465 -25.122)" fill="#fff"/>
      <path id="Path_27" data-name="Path 27" d="M95.265,86.264H89.677a.425.425,0,0,1-.425-.425V72.222a3.971,3.971,0,0,0-.4-2.216,1.227,1.227,0,0,0-.989-.483q-1.758,0-1.758,3.336v12.98a.425.425,0,0,1-.425.425H80.095a.425.425,0,0,1-.425-.425V64.376a.425.425,0,0,1,.425-.425h5.133a.425.425,0,0,1,.425.425v.931a.425.425,0,0,0,.782.229,4.471,4.471,0,0,1,3.946-2.045,4.851,4.851,0,0,1,3.021.933,5.136,5.136,0,0,1,1.766,2.412,17.416,17.416,0,0,1,.523,5.144v13.86A.425.425,0,0,1,95.265,86.264Z" transform="translate(-57.706 -46.044)" fill="#fff"/>
    </g>
  </g>
</svg>
