<svg xmlns="http://www.w3.org/2000/svg" xmlns:xlink="http://www.w3.org/1999/xlink" width="50" height="50" viewBox="0 0 50 50">
  <defs>
    <linearGradient id="linear-gradient" x1="0.174" y1="0.091" x2="0.812" y2="1" gradientUnits="objectBoundingBox">
      <stop offset="0" stop-color="#00b4db"/>
      <stop offset="1" stop-color="#0083b0"/>
    </linearGradient>
  </defs>
  <path id="facebook" d="M50,25A25,25,0,1,0,25,50c.146,0,.293,0,.439-.01V30.537H20.068v-6.26h5.371V19.668c0-5.342,3.262-8.252,8.027-8.252a43.631,43.631,0,0,1,4.814.244v5.586H35c-2.588,0-3.1,1.23-3.1,3.037v3.984h6.2l-.811,6.26H31.9V49.033A25.008,25.008,0,0,0,50,25Z" fill="url(#linear-gradient)"/>
</svg>
